<svg xmlns="http://www.w3.org/2000/svg" width="1200" height="675"><defs><linearGradient id="d"><stop stop-color="#f4d1b7"/><stop offset=".49" stop-color="#f4d1b7"/><stop offset=".51" stop-color="#25404a"/></linearGradient></defs><rect width="1200" height="675" rx="36" fill="#0b2025"/><text x="60" y="72" fill="#efbd59" font-family="Arial" font-size="28" font-weight="700">KEY : FILL POWER RATIOS</text><text x="60" y="108" fill="#b8cccc" font-family="Arial" font-size="18">One stop = twice or half the light</text><g font-family="Arial" text-anchor="middle"><g transform="translate(55 155)"><rect width="250" height="400" rx="24" fill="#fffdf7"/><circle cx="125" cy="150" r="78" fill="#f4d1b7"/><text x="125" y="280" fill="#247c7c" font-size="34" font-weight="700">1 : 1</text><text x="125" y="320" fill="#607074" font-size="18">0 stops</text><text x="125" y="355" fill="#172225" font-size="17">Key 1/8 · Fill 1/8</text></g><g transform="translate(335 155)"><rect width="250" height="400" rx="24" fill="#fffdf7"/><circle cx="125" cy="150" r="78" fill="url(#d)"/><path d="M125 72 A78 78 0 0 1 125 228" fill="#bd8064" opacity=".38"/><text x="125" y="280" fill="#247c7c" font-size="34" font-weight="700">2 : 1</text><text x="125" y="320" fill="#607074" font-size="18">1 stop</text><text x="125" y="355" fill="#172225" font-size="17">Key 1/8 · Fill 1/16</text></g><g transform="translate(615 155)"><rect width="250" height="400" rx="24" fill="#fffdf7"/><circle cx="125" cy="150" r="78" fill="url(#d)"/><path d="M125 72 A78 78 0 0 1 125 228" fill="#132b32" opacity=".64"/><text x="125" y="280" fill="#247c7c" font-size="34" font-weight="700">4 : 1</text><text x="125" y="320" fill="#607074" font-size="18">2 stops</text><text x="125" y="355" fill="#172225" font-size="17">Key 1/8 · Fill 1/32</text></g><g transform="translate(895 155)"><rect width="250" height="400" rx="24" fill="#fffdf7"/><circle cx="125" cy="150" r="78" fill="url(#d)"/><path d="M125 72 A78 78 0 0 1 125 228" fill="#061419" opacity=".88"/><text x="125" y="280" fill="#247c7c" font-size="34" font-weight="700">8 : 1</text><text x="125" y="320" fill="#607074" font-size="18">3 stops</text><text x="125" y="355" fill="#172225" font-size="17">Key 1/8 · Fill 1/64</text></g><rect x="250" y="590" width="700" height="48" rx="24" fill="#dd7135"/><text x="600" y="621" fill="#fff" font-size="18" font-weight="700">Assumes identical flash, modifier, distance, angle, and zoom</text></g></svg>
