<svg xmlns="http://www.w3.org/2000/svg" width="1200" height="675"><rect width="1200" height="675" rx="36" fill="#0b2025"/><text x="60" y="72" fill="#efbd59" font-family="Arial" font-size="28" font-weight="700">FLASH STAYS CONSTANT · AMBIENT CHANGES</text><g font-family="Arial" text-anchor="middle"><g transform="translate(55 135)"><rect width="340" height="420" rx="24" fill="#1b2d34"/><circle cx="170" cy="175" r="80" fill="#efc7aa"/><path d="M90 390q80-145 160 0" fill="#315763"/><circle cx="75" cy="75" r="28" fill="#fff1a2"/><text x="170" y="335" fill="#fff" font-size="30" font-weight="700">1/200 s</text><text x="170" y="375" fill="#efbd59" font-size="19">Dark background</text></g><g transform="translate(430 135)"><rect width="340" height="420" rx="24" fill="#52747d"/><circle cx="170" cy="175" r="80" fill="#efc7aa"/><path d="M90 390q80-145 160 0" fill="#315763"/><circle cx="75" cy="75" r="28" fill="#fff1a2"/><text x="170" y="335" fill="#fff" font-size="30" font-weight="700">1/100 s</text><text x="170" y="375" fill="#efbd59" font-size="19">Balanced background</text></g><g transform="translate(805 135)"><rect width="340" height="420" rx="24" fill="#d7ab68"/><circle cx="170" cy="175" r="80" fill="#efc7aa"/><path d="M90 390q80-145 160 0" fill="#315763"/><circle cx="75" cy="75" r="28" fill="#fff1a2"/><text x="170" y="335" fill="#fff" font-size="30" font-weight="700">1/50 s</text><text x="170" y="375" fill="#fff7c4" font-size="19">Bright background</text></g><rect x="280" y="590" width="640" height="46" rx="23" fill="#247c7c"/><text x="600" y="620" fill="#fff" font-size="18" font-weight="700">Subject flash exposure remains approximately the same</text></g></svg>
