<svg xmlns="http://www.w3.org/2000/svg" width="1200" height="675"><rect width="1200" height="675" rx="36" fill="#0b2025"/><text x="60" y="70" fill="#efbd59" font-family="Arial" font-size="28" font-weight="700">PURE WHITE BACKGROUND: LIGHT SEPARATELY</text><g font-family="Arial" text-anchor="middle"><rect x="880" y="115" width="220" height="455" rx="18" fill="#fff" stroke="#efbd59" stroke-width="5"/><text x="990" y="605" fill="#fff" font-size="18">White background</text><ellipse cx="640" cy="310" rx="70" ry="85" fill="#f0c6a5"/><path d="M555 535q85-160 170 0" fill="#315763"/><text x="640" y="600" fill="#fff" font-size="18">Subject 6–8 ft forward</text><path d="M280 255L570 300" stroke="#fff3a7" stroke-width="28" opacity=".4"/><rect x="150" y="210" width="110" height="145" rx="18" fill="#fffdf7"/><text x="205" y="385" fill="#fff" font-size="18">Key light</text><path d="M820 250L940 310M820 430L940 370" stroke="#fff3a7" stroke-width="24" opacity=".45"/><rect x="760" y="195" width="80" height="105" rx="14" fill="#fffdf7"/><rect x="760" y="400" width="80" height="105" rx="14" fill="#fffdf7"/><text x="775" y="545" fill="#efbd59" font-size="17">Even background lights</text><path d="M765 150V560" stroke="#dd7135" stroke-width="4" stroke-dasharray="10 9"/><text x="640" y="130" fill="#b8cccc" font-size="18">Separation limits spill and flare</text></g></svg>
